<svg xmlns="http://www.w3.org/2000/svg" height="20" viewBox="0 96 960 960" width="20"><path d="m757.308 872.731-234.815-235q-29.685 23.538-65.362 35.673-35.677 12.135-70.285 12.135-85.805 0-145.46-59.77t-59.655-145q0-85.231 59.559-145.154 59.56-59.923 145-59.923 85.441 0 145.364 59.843 59.923 59.842 59.923 145.212 0 37.361-13.154 73.095-13.154 35.735-34.654 63.091l235 234.336-21.461 21.462ZM386.654 656.615q74.115 0 125.057-50.795 50.943-50.795 50.943-125.25t-50.943-125.205q-50.942-50.75-125.249-50.75-74.308 0-125.058 50.796-50.75 50.795-50.75 125.25 0 74.454 50.782 125.204t125.218 50.75Z"/></svg>