<svg width="20" height="20" viewBox="0 0 20 20" fill="none" xmlns="http://www.w3.org/2000/svg">
<path d="M10 10.8335C11.3807 10.8335 12.5 9.71421 12.5 8.3335C12.5 6.95278 11.3807 5.8335 10 5.8335C8.61929 5.8335 7.5 6.95278 7.5 8.3335C7.5 9.71421 8.61929 10.8335 10 10.8335Z" stroke="#3F4E65" stroke-width="1.3" stroke-linecap="round" stroke-linejoin="round"/>
<path d="M10.0002 1.66675C8.23205 1.66675 6.53636 2.36913 5.28612 3.61937C4.03588 4.86961 3.3335 6.5653 3.3335 8.33342C3.3335 9.91008 3.6685 10.9417 4.5835 12.0834L10.0002 18.3334L15.4168 12.0834C16.3318 10.9417 16.6668 9.91008 16.6668 8.33342C16.6668 6.5653 15.9644 4.86961 14.7142 3.61937C13.464 2.36913 11.7683 1.66675 10.0002 1.66675V1.66675Z" stroke="#3F4E65" stroke-width="1.3" stroke-linecap="round" stroke-linejoin="round"/>
</svg>
